<svg width="20" height="15" viewBox="0 0 20 15" fill="none" xmlns="http://www.w3.org/2000/svg">
<path d="M18.0007 0H1.99928C0.900036 0 0.00960026 0.822475 0.00960026 1.82809L0 12.7944C0 13.8 0.900036 14.6225 1.99928 14.6225H18.0007C19.1 14.6225 20 13.8 20 12.7944V1.82809C20 0.822475 19.1 0 18.0007 0ZM17.5999 3.88427L10.5304 7.92427C10.3709 8.01401 10.1873 8.06153 10 8.06153C9.8127 8.06153 9.62907 8.01401 9.46958 7.92427L2.4001 3.88427C2.30122 3.83219 2.21483 3.76244 2.1461 3.67918C2.07737 3.59592 2.0277 3.50085 2.00006 3.39967C1.97241 3.29848 1.96736 3.19324 1.9852 3.09023C2.00304 2.98721 2.04341 2.88854 2.1039 2.8001C2.16439 2.71166 2.24376 2.63526 2.33727 2.57547C2.43077 2.51567 2.53651 2.4737 2.64815 2.45207C2.7598 2.43044 2.87507 2.42958 2.98709 2.44955C3.09911 2.46953 3.20557 2.50992 3.30013 2.56831L10 6.39775L16.6999 2.56831C16.7944 2.50992 16.9009 2.46953 17.0129 2.44955C17.1249 2.42958 17.2402 2.43044 17.3518 2.45207C17.4635 2.4737 17.5692 2.51567 17.6627 2.57547C17.7562 2.63526 17.8356 2.71166 17.8961 2.8001C17.9566 2.88854 17.997 2.98721 18.0148 3.09023C18.0326 3.19324 18.0276 3.29848 17.9999 3.39967C17.9723 3.50085 17.9226 3.59592 17.8539 3.67918C17.7852 3.76244 17.6988 3.83219 17.5999 3.88427Z" fill="#0E3C58"/>
</svg>
