<svg width="104" height="80" viewBox="0 0 104 80" fill="none" xmlns="http://www.w3.org/2000/svg">
<path d="M50.863 54.6648H43.5387V71.9768H50.863V54.6648Z" fill="#0182B8"/>
<path d="M25.619 52.3454L25.6238 59.6697L8.31182 59.681L8.30701 52.3567L25.619 52.3454Z" fill="#0AC2F4"/>
<path d="M73.1688 30.0286H65.8445V47.3405H73.1688V30.0286Z" fill="#0182B8"/>
<path d="M50.208 29.9877L50.2128 37.312L32.9008 37.3234L32.896 29.9991L50.208 29.9877Z" fill="#0AC2F4"/>
<path d="M43.5387 47.3405V54.6648H73.1688V47.3405H43.5387Z" fill="#0182B8"/>
<path d="M32.9481 59.6649L25.6238 59.6697L25.6043 30.0396L32.9286 30.0348L32.9481 59.6649Z" fill="#0AC2F4"/>
<path d="M65.8445 22.7043V30.0286H93.477V22.7043H65.8445Z" fill="#0182B8"/>
<path d="M57.5371 37.3072L50.2128 37.312L50.1946 9.65922L57.5189 9.65441L57.5371 37.3072Z" fill="#0AC2F4"/>
<path d="M43.5387 71.9768H50.863V79.9669L43.5387 71.9768Z" fill="#0182B8"/>
<path d="M8.31221 59.7062L8.50597 52.3569L0.515503 52.3666L8.31221 59.7062Z" fill="#0AC2F4"/>
<path d="M103.132 26.5334L93.4771 34.3566V18.3762L103.132 26.5334Z" fill="#0182B8"/>
<path d="M53.6293 0.00537109L45.8123 9.66525L61.7925 9.65477L53.6293 0.00537109Z" fill="#0AC2F4"/>
</svg>
