<svg width="26" height="26" viewBox="0 0 26 26" fill="none" xmlns="http://www.w3.org/2000/svg">
<path d="M13 0C9.46831 0 9.02744 0.01625 7.64075 0.078C6.25625 0.143 5.31375 0.36075 4.485 0.6825C3.63025 1.014 2.90442 1.45925 2.18183 2.18183C1.45925 2.90442 1.01292 3.62917 0.6825 4.485C0.36075 5.31375 0.141917 6.25625 0.078 7.64075C0.013 9.02744 0 9.46831 0 13C0 16.5317 0.01625 16.9726 0.078 18.3593C0.143 19.7427 0.36075 20.6863 0.6825 21.515C1.014 22.3687 1.45925 23.0956 2.18183 23.8182C2.90442 24.5397 3.62917 24.9871 4.485 25.3175C5.31483 25.6382 6.25733 25.8581 7.64075 25.922C9.02744 25.987 9.46831 26 13 26C16.5317 26 16.9726 25.9838 18.3593 25.922C19.7427 25.857 20.6863 25.6382 21.515 25.3175C22.3687 24.986 23.0956 24.5397 23.8182 23.8182C24.5397 23.0956 24.9871 22.3719 25.3175 21.515C25.6382 20.6863 25.8581 19.7427 25.922 18.3593C25.987 16.9726 26 16.5317 26 13C26 9.46831 25.9838 9.02744 25.922 7.64075C25.857 6.25733 25.6382 5.31267 25.3175 4.485C24.986 3.63025 24.5397 2.90442 23.8182 2.18183C23.0956 1.45925 22.3719 1.01292 21.515 0.6825C20.6863 0.36075 19.7427 0.141917 18.3593 0.078C16.9726 0.013 16.5317 0 13 0ZM13 2.34C16.4699 2.34 16.8838 2.35733 18.2542 2.41692C19.5217 2.4765 20.2096 2.68667 20.6667 2.8665C21.2756 3.10158 21.7068 3.38325 22.1639 3.83717C22.6178 4.29217 22.8995 4.72442 23.1346 5.33325C23.3123 5.79042 23.5246 6.47833 23.582 7.74583C23.6438 9.11731 23.6578 9.529 23.6578 13C23.6578 16.471 23.6416 16.8838 23.5777 18.2542C23.5116 19.5217 23.3003 20.2096 23.1216 20.6667C22.8789 21.2756 22.6027 21.7068 22.1477 22.1639C21.6938 22.6178 21.255 22.8995 20.6527 23.1346C20.1977 23.3123 19.4989 23.5246 18.2314 23.582C16.8513 23.6438 16.445 23.6578 12.9675 23.6578C9.48894 23.6578 9.08269 23.6416 7.70358 23.5777C6.435 23.5116 5.73625 23.3003 5.28125 23.1216C4.66483 22.8789 4.24125 22.6027 3.78733 22.1477C3.33125 21.6938 3.03983 21.255 2.81233 20.6527C2.63358 20.1977 2.42342 19.4989 2.35733 18.2314C2.30858 16.8664 2.29125 16.445 2.29125 12.9838C2.29125 9.52144 2.30858 9.09894 2.35733 7.71767C2.42342 6.45017 2.63358 5.7525 2.81233 5.2975C3.03983 4.68 3.33125 4.2575 3.78733 3.80142C4.24125 3.3475 4.66483 3.055 5.28125 2.82858C5.73625 2.64875 6.41983 2.4375 7.68733 2.3725C9.06856 2.32375 9.47481 2.3075 12.9513 2.3075L13 2.34ZM13 6.3245C9.31125 6.3245 6.3245 9.3145 6.3245 13C6.3245 16.6888 9.3145 19.6755 13 19.6755C16.6888 19.6755 19.6755 16.6855 19.6755 13C19.6755 9.31125 16.6855 6.3245 13 6.3245ZM13 17.3333C10.6058 17.3333 8.66669 15.3942 8.66669 13C8.66669 10.6058 10.6058 8.66669 13 8.66669C15.3942 8.66669 17.3333 10.6058 17.3333 13C17.3333 15.3942 15.3942 17.3333 13 17.3333ZM21.4998 6.06125C21.4998 6.9225 20.8 7.62125 19.9398 7.62125C19.0786 7.62125 18.3798 6.92142 18.3798 6.06125C18.3798 5.20108 19.0797 4.50233 19.9398 4.50233C20.7989 4.50125 21.4998 5.20108 21.4998 6.06125Z" fill="#DEDEDE"/>
</svg>
