<svg width="26" height="26" viewBox="0 0 26 26" fill="none" xmlns="http://www.w3.org/2000/svg">
<path d="M5.81982 26H0.429464V8.64113H5.81982V26ZM3.12174 6.27322C1.39808 6.27322 0 4.84551 0 3.12181C1.23372e-08 2.29386 0.328897 1.49981 0.914337 0.914357C1.49978 0.328904 2.2938 0 3.12174 0C3.94968 0 4.74371 0.328904 5.32915 0.914357C5.91459 1.49981 6.24348 2.29386 6.24348 3.12181C6.24348 4.84551 4.84482 6.27322 3.12174 6.27322ZM25.9942 26H20.6154V17.5498C20.6154 15.5359 20.5748 12.9533 17.8129 12.9533C15.0104 12.9533 14.5809 15.1413 14.5809 17.4047V26H9.19634V8.64113H14.3662V11.009H14.4416C15.1613 9.64517 16.9192 8.20585 19.5418 8.20585C24.9971 8.20585 26 11.7983 26 16.4645V26H25.9942Z" fill="#DEDEDE"/>
</svg>
