<svg width="277" height="154" viewBox="0 0 277 154" fill="none" xmlns="http://www.w3.org/2000/svg">
<g filter="url(#filter0_d_429_18)">
<path d="M25.5955 104.262L31.2461 89.1539L35.0494 89.1606L25.869 112.636L25.4215 112.635L19.0552 97.411L12.6694 112.582L12.2219 112.581L3.12085 89.1066L6.92413 89.1129L12.5237 104.24L19.0054 89.0054L19.1972 89.0057L25.5955 104.262ZM36.7559 89.1632L40.3355 89.1692L40.2959 112.66L36.7163 112.654L36.7559 89.1632ZM44.7764 89.1769L48.3879 89.1829L48.3536 109.478L55.0973 109.489L55.092 112.685L44.7368 112.668L44.7764 89.1769ZM62.9742 113.018C61.6958 113.016 60.4284 112.79 59.1719 112.341C57.9155 111.891 57.0109 111.389 56.458 110.834L58.1568 107.801C58.6036 108.206 59.2954 108.634 60.2323 109.083C61.1901 109.51 62.106 109.725 62.9796 109.726C64.1088 109.728 65.0257 109.463 65.7295 108.932C66.4549 108.4 66.8185 107.666 66.8202 106.729C66.8212 106.004 66.6304 105.375 66.2479 104.842C65.8653 104.309 65.3972 103.871 64.8439 103.529C64.2906 103.166 63.5029 102.728 62.4808 102.215C61.2673 101.616 60.4374 101.167 59.9903 100.868C57.9258 99.4798 56.8957 97.5605 56.8997 95.1102C56.9034 93.086 57.5772 91.5423 58.9212 90.4793C60.2652 89.3949 61.9602 88.8543 64.0056 88.8579C66.2003 88.8616 68.0636 89.4931 69.5957 90.7529L67.8968 93.6583C67.4927 93.2315 66.918 92.8683 66.1726 92.569C65.4488 92.2481 64.6715 92.0869 63.8405 92.0856C62.7751 92.0836 61.9332 92.3273 61.3143 92.8164C60.717 93.2841 60.4174 93.9866 60.4157 94.9241C60.4147 95.5846 60.6055 96.1816 60.988 96.7149C61.3709 97.2269 61.8493 97.6754 62.4239 98.0599C63.0202 98.4444 63.8182 98.9145 64.8186 99.4702C65.7768 100.005 66.5109 100.432 67.0219 100.752C67.5326 101.052 68.0114 101.414 68.4581 101.841C69.075 102.396 69.5748 103.058 69.9569 103.825C70.3391 104.593 70.5296 105.435 70.5279 106.351C70.5256 107.779 70.1933 108.993 69.5311 109.993C68.8903 110.993 67.994 111.748 66.8425 112.258C65.7125 112.767 64.4231 113.021 62.9742 113.018ZM84.2084 113.054C82.0777 113.05 80.1074 112.557 78.298 111.574C76.5102 110.569 75.0849 109.15 74.0226 107.316C72.9602 105.482 72.4312 103.35 72.4352 100.921C72.4396 98.4707 72.9759 96.341 74.0442 94.5319C75.1126 92.7012 76.5425 91.2972 78.3339 90.3201C80.1467 89.343 82.1186 88.8566 84.2493 88.8599C86.38 88.8636 88.3392 89.357 90.1274 90.3401C91.9368 91.3232 93.3727 92.7321 94.4351 94.5662C95.4974 96.379 96.0264 98.5107 96.0221 100.961C96.0181 103.39 95.4818 105.52 94.4134 107.35C93.3451 109.181 91.9042 110.595 90.0914 111.594C88.3 112.571 86.3391 113.058 84.2084 113.054ZM84.2137 109.826C85.6839 109.829 87.0269 109.49 88.2427 108.81C89.4582 108.109 90.4187 107.099 91.1242 105.779C91.8509 104.438 92.2158 102.84 92.2188 100.987C92.2221 99.1116 91.8626 97.5129 91.1405 96.1905C90.4393 94.8472 89.4825 93.8334 88.269 93.1496C87.0768 92.4658 85.7351 92.1226 84.2436 92.1199C82.7522 92.1176 81.3985 92.4562 80.183 93.136C78.9675 93.8158 78.0067 94.8262 77.3015 96.1672C76.5961 97.4873 76.2419 99.0846 76.2385 100.96C76.2355 102.813 76.5951 104.412 77.3172 105.755C78.0393 107.078 79.0071 108.092 80.2206 108.797C81.4551 109.48 82.7861 109.824 84.2137 109.826ZM102.549 97.5522L102.641 100.109L102.619 112.766L99.0397 112.759L99.0793 89.2368L99.5268 89.2375L113.308 104.666L113.184 101.981L113.206 89.2924L116.785 89.2984L116.746 112.789L116.266 112.789L102.549 97.5522ZM147.844 88.7657L147.804 112.842L143.593 112.835L143.61 102.682L143.77 98.6745L142.561 100.506L137.9 105.966L133.256 100.491L132.054 98.6548L132.234 102.662L132.217 112.816L128.006 112.808L128.047 88.7324L128.386 88.7327L137.944 100.04L147.471 88.765L147.844 88.7657ZM165.434 109.034L165.427 112.872L152.387 112.85L152.427 89.1809L164.788 89.2018L164.782 92.9033L156.666 92.8896L156.657 98.4248L163.109 98.4358L163.102 102.035L156.65 102.024L156.639 109.02L165.434 109.034ZM168.328 89.3856L173.986 89.3953C178.716 89.4033 182.016 90.5275 183.888 92.7678C185.78 95.0083 186.724 97.673 186.719 100.763C186.715 102.915 186.307 104.906 185.494 106.737C184.681 108.547 183.337 110.025 181.46 111.173C179.604 112.32 177.163 112.892 174.138 112.887L168.289 112.877L168.328 89.3856ZM174.527 109.723C177.467 109.728 179.599 108.901 180.923 107.241C182.268 105.56 182.943 103.452 182.947 100.916C182.951 98.4444 182.284 96.4299 180.944 94.8722C179.604 93.3144 177.475 92.5331 174.555 92.5284L171.903 92.5237L171.874 109.719L174.527 109.723ZM202.638 109.097L202.632 112.935L189.592 112.913L189.632 89.2438L201.993 89.2648L201.986 92.9662L193.87 92.9525L193.861 98.4877L200.313 98.4984L200.307 102.098L193.855 102.087L193.843 109.083L202.638 109.097ZM205.948 89.4492L209.528 89.4552L209.488 112.946L205.909 112.94L205.948 89.4492ZM224.68 112.972L218.616 104.404L218.601 112.962L214.289 112.954L214.329 89.2857L220.917 89.2967C226.531 89.306 229.334 91.8239 229.326 96.8497C229.324 97.9703 229.14 99.0736 228.777 100.16C228.413 101.234 227.817 102.19 226.989 103.026C226.172 103.862 225.124 104.438 223.845 104.753L229.943 112.981L224.68 112.972ZM220.419 102.268C221.381 102.269 222.202 102.045 222.882 101.593C223.574 101.13 224.095 100.52 224.448 99.7618C224.8 98.9928 224.977 98.1554 224.978 97.2499C224.981 95.6878 224.62 94.5382 223.897 93.8012C223.185 93.0641 221.998 92.6942 220.334 92.6915L218.636 92.6885L218.619 102.265L220.419 102.268ZM243.311 113.323C241.181 113.319 239.211 112.826 237.401 111.843C235.613 110.838 234.188 109.419 233.126 107.585C232.063 105.751 231.534 103.619 231.538 101.19C231.542 98.7397 232.079 96.61 233.147 94.8006C234.216 92.9699 235.646 91.5663 237.437 90.5891C239.25 89.612 241.222 89.1253 243.352 89.1289C245.483 89.1326 247.442 89.626 249.231 90.6091C251.04 91.5922 252.476 93.0008 253.538 94.8352C254.6 96.648 255.129 98.7797 255.125 101.23C255.121 103.659 254.585 105.789 253.516 107.619C252.448 109.45 251.007 110.864 249.195 111.863C247.403 112.84 245.442 113.327 243.311 113.323ZM243.317 110.095C244.787 110.097 246.13 109.759 247.346 109.079C248.561 108.378 249.522 107.367 250.227 106.048C250.954 104.706 251.319 103.109 251.322 101.255C251.325 99.3803 250.965 97.7816 250.243 96.4595C249.543 95.1159 248.585 94.1021 247.372 93.4183C246.18 92.7345 244.838 92.3912 243.347 92.3889C241.855 92.3862 240.502 92.7248 239.286 93.4047C238.07 94.0845 237.11 95.0949 236.404 96.4362C235.699 97.7559 235.345 99.3533 235.342 101.228C235.338 103.082 235.698 104.681 236.42 106.024C237.143 107.346 238.11 108.36 239.324 109.065C240.558 109.749 241.889 110.092 243.317 110.095ZM263.543 113.357C262.265 113.355 260.997 113.129 259.741 112.68C258.485 112.23 257.58 111.728 257.027 111.173L258.726 108.139C259.173 108.545 259.865 108.972 260.801 109.421C261.759 109.849 262.675 110.064 263.549 110.065C264.678 110.067 265.595 109.802 266.299 109.271C267.024 108.739 267.388 108.005 267.389 107.067C267.391 106.343 267.2 105.714 266.817 105.181C266.435 104.647 265.967 104.21 265.413 103.868C264.86 103.505 264.072 103.067 263.05 102.554C261.837 101.955 261.006 101.506 260.56 101.207C258.495 99.8187 257.465 97.8991 257.469 95.4488C257.472 93.4246 258.146 91.8812 259.491 90.8182C260.835 89.7338 262.53 89.1932 264.575 89.1968C266.77 89.2005 268.633 89.8321 270.165 91.0918L268.466 93.9973C268.062 93.5704 267.487 93.2072 266.742 92.9079C266.018 92.587 265.241 92.4259 264.41 92.4245C263.345 92.4225 262.502 92.6662 261.884 93.1553C261.286 93.623 260.987 94.3255 260.985 95.263C260.984 95.9235 261.175 96.5205 261.557 97.0538C261.94 97.5658 262.419 98.0143 262.993 98.3988C263.589 98.7833 264.388 99.2534 265.388 99.8091C266.346 100.343 267.08 100.771 267.591 101.091C268.102 101.39 268.581 101.753 269.027 102.18C269.644 102.735 270.144 103.397 270.526 104.164C270.909 104.932 271.099 105.774 271.097 106.69C271.095 108.118 270.763 109.332 270.101 110.332C269.46 111.332 268.563 112.087 267.412 112.597C266.282 113.106 264.992 113.36 263.543 113.357Z" fill="#0182B8"/>
<path d="M135.863 57.6648H128.539V74.9768H135.863V57.6648Z" fill="#0182B8"/>
<path d="M110.619 55.3454L110.624 62.6697L93.3118 62.681L93.307 55.3567L110.619 55.3454Z" fill="#0AC2F4"/>
<path d="M158.169 33.0286H150.844V50.3405H158.169V33.0286Z" fill="#0182B8"/>
<path d="M135.208 32.9877L135.213 40.312L117.901 40.3234L117.896 32.9991L135.208 32.9877Z" fill="#0AC2F4"/>
<path d="M128.539 50.3405V57.6648H158.169V50.3405H128.539Z" fill="#0182B8"/>
<path d="M117.948 62.6649L110.624 62.6697L110.604 33.0396L117.929 33.0348L117.948 62.6649Z" fill="#0AC2F4"/>
<path d="M150.844 25.7043V33.0286H178.477V25.7043H150.844Z" fill="#0182B8"/>
<path d="M142.537 40.3072L135.213 40.312L135.195 12.6592L142.519 12.6544L142.537 40.3072Z" fill="#0AC2F4"/>
<path d="M128.539 74.9768H135.863V82.9669L128.539 74.9768Z" fill="#0182B8"/>
<path d="M93.3122 62.7062L93.506 55.3569L85.5155 55.3666L93.3122 62.7062Z" fill="#0AC2F4"/>
<path d="M188.132 29.5334L178.477 37.3566V21.3762L188.132 29.5334Z" fill="#0182B8"/>
<path d="M138.629 3.00537L130.812 12.6653L146.793 12.6548L138.629 3.00537Z" fill="#0AC2F4"/>
</g>
<path d="M62.9735 148L64.5245 135.674H65.234C65.3275 135.674 65.487 135.669 65.7125 135.658C65.9435 135.641 66.1965 135.625 66.4715 135.608C66.7465 135.592 66.9995 135.578 67.2305 135.567C67.4615 135.551 67.621 135.542 67.709 135.542C68.9245 135.542 69.8403 135.812 70.4563 136.351C71.0778 136.89 71.3885 137.709 71.3885 138.809C71.3885 139.805 71.1795 140.679 70.7615 141.433C70.3435 142.175 69.7605 142.75 69.0125 143.157C68.2645 143.559 67.412 143.76 66.455 143.76C66.169 143.76 65.8803 143.751 65.5888 143.735C65.3028 143.713 65.0195 143.682 64.739 143.644L64.178 148H62.9735ZM66.422 142.802C67.643 142.802 68.5725 142.456 69.2105 141.763C69.8485 141.07 70.1675 140.063 70.1675 138.743C70.1675 137.99 69.9475 137.421 69.5075 137.036C69.073 136.645 68.413 136.45 67.5275 136.45C67.3075 136.45 67.038 136.464 66.719 136.491C66.4055 136.513 66.037 136.554 65.6135 136.615L64.8545 142.67C65.0195 142.703 65.2615 142.734 65.5805 142.761C65.905 142.789 66.1855 142.802 66.422 142.802ZM75.0621 148.132C74.3856 148.132 73.8191 147.983 73.3626 147.686C72.9061 147.384 72.5596 146.949 72.3231 146.383C72.0921 145.811 71.9766 145.118 71.9766 144.304C71.9766 143.352 72.1746 142.439 72.5706 141.565C72.9611 140.707 73.4973 140.014 74.1793 139.486C74.8668 138.958 75.6396 138.694 76.4976 138.694C77.1631 138.694 77.7186 138.842 78.1641 139.139C78.6151 139.436 78.9533 139.868 79.1788 140.435C79.4043 141.001 79.5171 141.691 79.5171 142.505C79.5171 143.468 79.3301 144.381 78.9561 145.244C78.5766 146.108 78.0458 146.806 77.3638 147.34C76.6873 147.868 75.9201 148.132 75.0621 148.132ZM75.2601 147.224C75.7496 147.224 76.1786 147.084 76.5471 146.804C76.9211 146.518 77.2346 146.144 77.4876 145.682C77.7461 145.22 77.9386 144.711 78.0651 144.155C78.1971 143.6 78.2631 143.05 78.2631 142.505C78.2631 141.884 78.1943 141.356 78.0568 140.921C77.9193 140.487 77.7048 140.157 77.4133 139.931C77.1273 139.7 76.7561 139.585 76.2996 139.585C75.7936 139.585 75.3481 139.728 74.9631 140.014C74.5781 140.3 74.2563 140.677 73.9978 141.144C73.7393 141.606 73.5441 142.112 73.4121 142.662C73.2801 143.212 73.2141 143.754 73.2141 144.287C73.2141 145.233 73.3846 145.959 73.7256 146.465C74.0666 146.971 74.5781 147.224 75.2601 147.224ZM81.0633 148L82.3008 138.809H83.4228L83.2248 140.839C83.4063 140.459 83.6566 140.107 83.9756 139.783C84.3001 139.458 84.6631 139.197 85.0646 138.999C85.4661 138.796 85.8758 138.694 86.2938 138.694C86.5633 138.694 86.7393 138.727 86.8218 138.793L86.5413 140.063C86.4698 140.03 86.3736 140.006 86.2526 139.989C86.1371 139.973 85.9913 139.964 85.8153 139.964C85.4358 139.964 85.0563 140.099 84.6768 140.369C84.3028 140.638 83.9646 140.971 83.6621 141.367C83.3651 141.763 83.1423 142.148 82.9938 142.522L82.2678 148H81.0633ZM92.0174 152.092L92.6444 147.406L92.8424 146.35C92.6059 146.674 92.3281 146.971 92.0091 147.241C91.6956 147.51 91.3491 147.728 90.9696 147.893C90.5956 148.052 90.2024 148.132 89.7899 148.132C88.9429 148.132 88.3049 147.821 87.8759 147.2C87.4469 146.578 87.2324 145.728 87.2324 144.65C87.2324 143.864 87.3561 143.113 87.6036 142.398C87.8511 141.683 88.2004 141.048 88.6514 140.492C89.1079 139.937 89.6524 139.5 90.2849 139.181C90.9174 138.856 91.6159 138.694 92.3804 138.694C92.6389 138.694 92.9111 138.719 93.1971 138.768C93.4886 138.818 93.7664 138.881 94.0304 138.958L94.9874 138.661L93.2054 152.092H92.0174ZM90.0044 147.191C90.3124 147.191 90.6094 147.128 90.8954 147.002C91.1869 146.87 91.4591 146.699 91.7121 146.49C91.9706 146.276 92.2044 146.039 92.4134 145.781C92.6279 145.522 92.8094 145.266 92.9579 145.013L93.6344 139.849C93.4309 139.772 93.1999 139.706 92.9414 139.651C92.6884 139.596 92.4409 139.568 92.1989 139.568C91.6159 139.568 91.0934 139.711 90.6314 139.997C90.1694 140.283 89.7761 140.666 89.4516 141.144C89.1326 141.623 88.8879 142.153 88.7174 142.736C88.5524 143.319 88.4699 143.908 88.4699 144.502C88.4699 145.112 88.5304 145.616 88.6514 146.012C88.7724 146.408 88.9456 146.705 89.1711 146.903C89.4021 147.095 89.6799 147.191 90.0044 147.191ZM98.7918 148.149C98.0933 148.149 97.5735 147.972 97.2325 147.62C96.897 147.268 96.7293 146.68 96.7293 145.855C96.7293 145.723 96.7513 145.456 96.7953 145.055C96.8393 144.648 96.8888 144.194 96.9438 143.693C96.9933 143.303 97.051 142.863 97.117 142.373C97.1885 141.884 97.2655 141.342 97.348 140.748C97.4305 140.154 97.5213 139.508 97.6203 138.809H98.8248C98.7368 139.475 98.657 140.058 98.5855 140.558C98.5195 141.059 98.459 141.491 98.404 141.854C98.3545 142.217 98.3133 142.522 98.2803 142.769C98.2473 143.017 98.2198 143.218 98.1978 143.372C98.1758 143.52 98.1593 143.633 98.1483 143.71C98.0823 144.194 98.0328 144.598 97.9998 144.923C97.9668 145.247 97.9503 145.53 97.9503 145.772C97.9503 146.267 98.0548 146.614 98.2638 146.812C98.4728 147.01 98.7918 147.109 99.2208 147.109C99.5948 147.109 99.9853 146.982 100.392 146.729C100.805 146.476 101.193 146.16 101.556 145.781C101.924 145.401 102.229 145.024 102.471 144.65L103.247 138.809H104.435L103.214 148H102.108L102.339 145.888C101.877 146.537 101.33 147.076 100.698 147.505C100.065 147.934 99.4298 148.149 98.7918 148.149ZM109.141 148.132C108.415 148.132 107.81 147.956 107.326 147.604C106.859 147.246 106.515 146.79 106.295 146.234C106.081 145.679 105.984 145.085 106.006 144.452C106.023 143.391 106.243 142.412 106.666 141.515C107.079 140.641 107.64 139.953 108.349 139.453C109.059 138.947 109.862 138.694 110.758 138.694C111.16 138.694 111.531 138.774 111.872 138.933C112.213 139.093 112.485 139.324 112.689 139.626C112.898 139.923 113.002 140.283 113.002 140.707C113.002 141.257 112.843 141.746 112.524 142.175C112.205 142.604 111.773 142.976 111.229 143.289C110.684 143.597 110.071 143.847 109.389 144.04C108.707 144.227 108.003 144.359 107.277 144.436C107.271 144.458 107.266 144.494 107.26 144.543C107.26 144.587 107.26 144.639 107.26 144.7C107.26 145.393 107.414 145.979 107.722 146.457C108.03 146.936 108.547 147.175 109.273 147.175C109.576 147.175 109.887 147.125 110.206 147.026C110.53 146.922 110.849 146.768 111.163 146.564C111.482 146.361 111.787 146.108 112.078 145.805L112.425 146.498C112.304 146.669 112.117 146.85 111.864 147.043C111.611 147.23 111.325 147.406 111.006 147.571C110.687 147.736 110.365 147.871 110.041 147.975C109.716 148.08 109.416 148.132 109.141 148.132ZM107.31 143.561C107.788 143.55 108.289 143.479 108.811 143.347C109.334 143.209 109.823 143.02 110.28 142.778C110.736 142.536 111.105 142.25 111.385 141.92C111.671 141.584 111.814 141.213 111.814 140.806C111.814 140.399 111.699 140.096 111.468 139.898C111.242 139.7 110.918 139.601 110.494 139.601C110.214 139.601 109.944 139.651 109.686 139.75C109.433 139.843 109.191 139.986 108.96 140.179C108.492 140.575 108.116 141.081 107.83 141.697C107.544 142.313 107.37 142.934 107.31 143.561ZM119.216 148.132C118.754 148.132 118.402 148.014 118.16 147.777C117.918 147.541 117.797 147.197 117.797 146.746C117.797 146.68 117.8 146.597 117.806 146.498C117.817 146.394 117.828 146.273 117.839 146.135C117.855 145.992 117.874 145.833 117.896 145.657L118.639 139.766H117.55L117.814 138.826L118.837 138.809L119.282 136.565H120.289L120.008 138.809H122.351L122.203 139.766H119.876C119.722 140.91 119.596 141.862 119.497 142.621C119.398 143.38 119.315 143.993 119.249 144.461C119.189 144.923 119.142 145.275 119.109 145.517C119.082 145.759 119.062 145.929 119.051 146.028C119.04 146.127 119.035 146.196 119.035 146.234C119.035 146.504 119.082 146.729 119.175 146.911C119.274 147.087 119.442 147.175 119.678 147.175C119.832 147.175 120.022 147.131 120.248 147.043C120.473 146.949 120.693 146.839 120.908 146.713C121.128 146.586 121.306 146.465 121.444 146.35L121.609 147.026C121.482 147.175 121.279 147.334 120.998 147.505C120.718 147.675 120.415 147.824 120.091 147.95C119.766 148.072 119.475 148.132 119.216 148.132ZM125.459 148.149C124.761 148.149 124.241 147.972 123.9 147.62C123.565 147.268 123.397 146.68 123.397 145.855C123.397 145.723 123.419 145.456 123.463 145.055C123.507 144.648 123.556 144.194 123.611 143.693C123.661 143.303 123.719 142.863 123.785 142.373C123.856 141.884 123.933 141.342 124.016 140.748C124.098 140.154 124.189 139.508 124.288 138.809H125.492C125.404 139.475 125.325 140.058 125.253 140.558C125.187 141.059 125.127 141.491 125.072 141.854C125.022 142.217 124.981 142.522 124.948 142.769C124.915 143.017 124.887 143.218 124.865 143.372C124.843 143.52 124.827 143.633 124.816 143.71C124.75 144.194 124.7 144.598 124.667 144.923C124.634 145.247 124.618 145.53 124.618 145.772C124.618 146.267 124.722 146.614 124.931 146.812C125.14 147.01 125.459 147.109 125.888 147.109C126.262 147.109 126.653 146.982 127.06 146.729C127.472 146.476 127.86 146.16 128.223 145.781C128.592 145.401 128.897 145.024 129.139 144.65L129.914 138.809H131.102L129.881 148H128.776L129.007 145.888C128.545 146.537 127.998 147.076 127.365 147.505C126.733 147.934 126.097 148.149 125.459 148.149ZM135.149 148.132C134.302 148.132 133.664 147.821 133.235 147.2C132.806 146.578 132.591 145.728 132.591 144.65C132.591 143.759 132.784 142.846 133.169 141.911C133.427 141.295 133.771 140.745 134.2 140.261C134.635 139.777 135.146 139.395 135.735 139.115C136.329 138.834 136.997 138.694 137.739 138.694C137.948 138.694 138.171 138.71 138.408 138.743C138.65 138.776 138.905 138.826 139.175 138.892L139.736 134.816H140.924L139.125 148H138.053L138.218 146.317C137.992 146.647 137.717 146.949 137.393 147.224C137.074 147.499 136.722 147.719 136.337 147.884C135.957 148.05 135.561 148.132 135.149 148.132ZM135.363 147.191C135.671 147.191 135.968 147.131 136.254 147.01C136.54 146.889 136.81 146.727 137.063 146.523C137.316 146.314 137.55 146.086 137.764 145.838C137.979 145.585 138.163 145.332 138.317 145.079L139.043 139.849C138.586 139.662 138.091 139.568 137.558 139.568C136.771 139.568 136.1 139.821 135.545 140.327C134.978 140.839 134.549 141.48 134.258 142.25C133.972 143.014 133.829 143.765 133.829 144.502C133.829 145.096 133.887 145.594 134.002 145.995C134.123 146.391 134.296 146.691 134.522 146.894C134.753 147.092 135.033 147.191 135.363 147.191ZM145.074 148.132C144.398 148.132 143.831 147.983 143.375 147.686C142.918 147.384 142.572 146.949 142.335 146.383C142.104 145.811 141.989 145.118 141.989 144.304C141.989 143.352 142.187 142.439 142.583 141.565C142.973 140.707 143.51 140.014 144.192 139.486C144.879 138.958 145.652 138.694 146.51 138.694C147.175 138.694 147.731 138.842 148.176 139.139C148.627 139.436 148.966 139.868 149.191 140.435C149.417 141.001 149.529 141.691 149.529 142.505C149.529 143.468 149.342 144.381 148.968 145.244C148.589 146.108 148.058 146.806 147.376 147.34C146.7 147.868 145.932 148.132 145.074 148.132ZM145.272 147.224C145.762 147.224 146.191 147.084 146.559 146.804C146.933 146.518 147.247 146.144 147.5 145.682C147.758 145.22 147.951 144.711 148.077 144.155C148.209 143.6 148.275 143.05 148.275 142.505C148.275 141.884 148.207 141.356 148.069 140.921C147.932 140.487 147.717 140.157 147.426 139.931C147.14 139.7 146.768 139.585 146.312 139.585C145.806 139.585 145.36 139.728 144.975 140.014C144.59 140.3 144.269 140.677 144.01 141.144C143.752 141.606 143.556 142.112 143.424 142.662C143.292 143.212 143.226 143.754 143.226 144.287C143.226 145.233 143.397 145.959 143.738 146.465C144.079 146.971 144.59 147.224 145.272 147.224ZM157.159 148.132C156.433 148.132 155.828 147.956 155.344 147.604C154.876 147.246 154.533 146.79 154.313 146.234C154.098 145.679 154.002 145.085 154.024 144.452C154.04 143.391 154.26 142.412 154.684 141.515C155.096 140.641 155.657 139.953 156.367 139.453C157.076 138.947 157.879 138.694 158.776 138.694C159.177 138.694 159.549 138.774 159.89 138.933C160.231 139.093 160.503 139.324 160.706 139.626C160.915 139.923 161.02 140.283 161.02 140.707C161.02 141.257 160.86 141.746 160.541 142.175C160.222 142.604 159.791 142.976 159.246 143.289C158.702 143.597 158.088 143.847 157.406 144.04C156.724 144.227 156.02 144.359 155.294 144.436C155.289 144.458 155.283 144.494 155.278 144.543C155.278 144.587 155.278 144.639 155.278 144.7C155.278 145.393 155.432 145.979 155.74 146.457C156.048 146.936 156.565 147.175 157.291 147.175C157.593 147.175 157.904 147.125 158.223 147.026C158.548 146.922 158.867 146.768 159.18 146.564C159.499 146.361 159.804 146.108 160.096 145.805L160.442 146.498C160.321 146.669 160.134 146.85 159.881 147.043C159.628 147.23 159.342 147.406 159.023 147.571C158.704 147.736 158.383 147.871 158.058 147.975C157.734 148.08 157.434 148.132 157.159 148.132ZM155.327 143.561C155.806 143.55 156.306 143.479 156.829 143.347C157.351 143.209 157.841 143.02 158.297 142.778C158.754 142.536 159.122 142.25 159.403 141.92C159.689 141.584 159.832 141.213 159.832 140.806C159.832 140.399 159.716 140.096 159.485 139.898C159.26 139.7 158.935 139.601 158.512 139.601C158.231 139.601 157.962 139.651 157.703 139.75C157.45 139.843 157.208 139.986 156.977 140.179C156.51 140.575 156.133 141.081 155.847 141.697C155.561 142.313 155.388 142.934 155.327 143.561ZM158.66 137.143L158.149 136.697L160.657 133.48L161.581 134.321C161.493 134.459 161.361 134.629 161.185 134.833C161.014 135.036 160.816 135.254 160.591 135.485C160.365 135.716 160.134 135.941 159.898 136.161C159.661 136.381 159.433 136.579 159.213 136.755C158.999 136.926 158.814 137.055 158.66 137.143ZM166.871 148.116L166.393 145.145L165.485 138.809H166.805L167.465 145.145L167.647 147.059L169 145.376C169.572 144.573 170.025 143.825 170.361 143.132C170.702 142.439 170.947 141.664 171.095 140.806C171.123 140.635 171.15 140.424 171.178 140.171C171.211 139.912 171.238 139.659 171.26 139.412C171.282 139.159 171.293 138.958 171.293 138.809H172.432C172.448 139.013 172.456 139.211 172.456 139.403C172.462 139.596 172.459 139.766 172.448 139.915C172.404 140.558 172.294 141.183 172.118 141.788C171.942 142.393 171.678 143.011 171.326 143.644C170.98 144.276 170.531 144.95 169.981 145.665C169.431 146.38 168.758 147.169 167.96 148.033L166.871 148.116ZM176.543 148.132C175.817 148.132 175.212 147.956 174.728 147.604C174.261 147.246 173.917 146.79 173.697 146.234C173.482 145.679 173.386 145.085 173.408 144.452C173.425 143.391 173.645 142.412 174.068 141.515C174.481 140.641 175.042 139.953 175.751 139.453C176.461 138.947 177.264 138.694 178.16 138.694C178.562 138.694 178.933 138.774 179.274 138.933C179.615 139.093 179.887 139.324 180.091 139.626C180.3 139.923 180.404 140.283 180.404 140.707C180.404 141.257 180.245 141.746 179.926 142.175C179.607 142.604 179.175 142.976 178.63 143.289C178.086 143.597 177.473 143.847 176.791 144.04C176.109 144.227 175.405 144.359 174.679 144.436C174.673 144.458 174.668 144.494 174.662 144.543C174.662 144.587 174.662 144.639 174.662 144.7C174.662 145.393 174.816 145.979 175.124 146.457C175.432 146.936 175.949 147.175 176.675 147.175C176.978 147.175 177.288 147.125 177.607 147.026C177.932 146.922 178.251 146.768 178.564 146.564C178.883 146.361 179.189 146.108 179.48 145.805L179.827 146.498C179.706 146.669 179.519 146.85 179.266 147.043C179.013 147.23 178.727 147.406 178.408 147.571C178.089 147.736 177.767 147.871 177.442 147.975C177.118 148.08 176.818 148.132 176.543 148.132ZM174.712 143.561C175.19 143.55 175.691 143.479 176.213 143.347C176.736 143.209 177.225 143.02 177.682 142.778C178.138 142.536 178.507 142.25 178.787 141.92C179.073 141.584 179.216 141.213 179.216 140.806C179.216 140.399 179.101 140.096 178.87 139.898C178.644 139.7 178.32 139.601 177.896 139.601C177.616 139.601 177.346 139.651 177.088 139.75C176.835 139.843 176.593 139.986 176.362 140.179C175.894 140.575 175.517 141.081 175.231 141.697C174.945 142.313 174.772 142.934 174.712 143.561ZM181.723 148L182.977 138.809H184.099L183.868 140.954C184.39 140.3 184.99 139.761 185.666 139.337C186.348 138.908 187.014 138.694 187.663 138.694C188.317 138.694 188.79 138.875 189.082 139.238C189.379 139.601 189.527 140.168 189.527 140.938C189.527 141.114 189.514 141.337 189.486 141.606C189.459 141.87 189.417 142.189 189.362 142.563C189.313 142.937 189.252 143.374 189.181 143.875C189.164 143.979 189.145 144.1 189.123 144.238C189.101 144.375 189.074 144.546 189.041 144.749C189.013 144.947 188.977 145.195 188.933 145.492C188.889 145.783 188.837 146.135 188.777 146.548C188.716 146.96 188.642 147.444 188.554 148H187.366C187.393 147.807 187.429 147.554 187.473 147.241C187.517 146.922 187.578 146.496 187.655 145.962C187.737 145.423 187.844 144.727 187.976 143.875C188.086 143.116 188.169 142.525 188.224 142.101C188.279 141.672 188.306 141.323 188.306 141.053C188.306 140.597 188.221 140.275 188.051 140.088C187.886 139.896 187.591 139.799 187.168 139.799C186.876 139.799 186.566 139.876 186.236 140.03C185.911 140.179 185.589 140.377 185.27 140.624C184.951 140.866 184.654 141.13 184.379 141.416C184.11 141.697 183.884 141.966 183.703 142.225L182.927 148H181.723ZM193.801 148.132C192.954 148.132 192.316 147.821 191.887 147.2C191.458 146.578 191.244 145.728 191.244 144.65C191.244 143.759 191.436 142.846 191.821 141.911C192.08 141.295 192.423 140.745 192.852 140.261C193.287 139.777 193.798 139.395 194.387 139.115C194.981 138.834 195.649 138.694 196.392 138.694C196.601 138.694 196.823 138.71 197.06 138.743C197.302 138.776 197.558 138.826 197.827 138.892L198.388 134.816H199.576L197.778 148H196.705L196.87 146.317C196.645 146.647 196.37 146.949 196.045 147.224C195.726 147.499 195.374 147.719 194.989 147.884C194.61 148.05 194.214 148.132 193.801 148.132ZM194.016 147.191C194.324 147.191 194.621 147.131 194.907 147.01C195.193 146.889 195.462 146.727 195.715 146.523C195.968 146.314 196.202 146.086 196.416 145.838C196.631 145.585 196.815 145.332 196.969 145.079L197.695 139.849C197.239 139.662 196.744 139.568 196.21 139.568C195.424 139.568 194.753 139.821 194.197 140.327C193.631 140.839 193.202 141.48 192.91 142.25C192.624 143.014 192.481 143.765 192.481 144.502C192.481 145.096 192.539 145.594 192.654 145.995C192.775 146.391 192.949 146.691 193.174 146.894C193.405 147.092 193.686 147.191 194.016 147.191ZM203.067 148.132C202.22 148.132 201.582 147.821 201.153 147.2C200.724 146.578 200.509 145.728 200.509 144.65C200.509 143.853 200.627 143.097 200.864 142.382C201.106 141.667 201.45 141.034 201.895 140.484C202.346 139.929 202.885 139.491 203.512 139.172C204.139 138.853 204.838 138.694 205.608 138.694C205.866 138.694 206.149 138.719 206.457 138.768C206.765 138.812 207.054 138.881 207.324 138.974L208.231 138.694L206.977 148H205.921L206.07 146.366C205.734 146.845 205.3 147.26 204.766 147.612C204.238 147.959 203.672 148.132 203.067 148.132ZM203.265 147.191C203.573 147.191 203.87 147.128 204.156 147.002C204.447 146.875 204.719 146.705 204.972 146.49C205.231 146.276 205.465 146.039 205.674 145.781C205.883 145.522 206.064 145.261 206.218 144.997L206.895 139.882C206.46 139.673 205.965 139.568 205.41 139.568C204.634 139.568 203.974 139.816 203.43 140.311C202.88 140.811 202.462 141.447 202.176 142.217C201.89 142.981 201.747 143.748 201.747 144.518C201.747 145.112 201.804 145.607 201.92 146.003C202.035 146.399 202.206 146.696 202.431 146.894C202.657 147.092 202.935 147.191 203.265 147.191ZM210.488 148.132C210.284 148.132 210.111 148.066 209.968 147.934C209.83 147.802 209.762 147.626 209.762 147.406C209.762 147.109 209.852 146.861 210.034 146.663C210.215 146.465 210.449 146.366 210.735 146.366C210.994 146.366 211.178 146.43 211.288 146.556C211.403 146.677 211.461 146.85 211.461 147.076C211.461 147.411 211.373 147.673 211.197 147.86C211.021 148.041 210.785 148.132 210.488 148.132Z" fill="#0AC2F4"/>
<defs>
<filter id="filter0_d_429_18" x="0" y="0" width="278" height="120.528" filterUnits="userSpaceOnUse" color-interpolation-filters="sRGB">
<feFlood flood-opacity="0" result="BackgroundImageFix"/>
<feColorMatrix in="SourceAlpha" type="matrix" values="0 0 0 0 0 0 0 0 0 0 0 0 0 0 0 0 0 0 127 0" result="hardAlpha"/>
<feOffset dx="1" dy="1"/>
<feGaussianBlur stdDeviation="2"/>
<feComposite in2="hardAlpha" operator="out"/>
<feColorMatrix type="matrix" values="0 0 0 0 0 0 0 0 0 0 0 0 0 0 0 0 0 0 0.25 0"/>
<feBlend mode="normal" in2="BackgroundImageFix" result="effect1_dropShadow_429_18"/>
<feBlend mode="normal" in="SourceGraphic" in2="effect1_dropShadow_429_18" result="shape"/>
</filter>
</defs>
</svg>
