<svg width="40" height="38" viewBox="0 0 40 38" fill="none" xmlns="http://www.w3.org/2000/svg">
<rect x="0.35" y="0.35" width="39.3" height="37.3" rx="3.65" stroke="#AAAAAA" stroke-width="0.7"/>
<g clip-path="url(#clip0_789_44)">
<path d="M8.93209 9.22189C8.25397 9.35314 7.60865 9.85627 7.3024 10.5016C6.98522 11.1578 7.0399 12.0328 7.43365 12.6453C7.65241 12.9844 8.0024 13.2906 8.40709 13.4875L8.80084 13.6735H20.0009H31.2118L31.5618 13.5094C32.7321 12.9516 33.2134 11.6281 32.6774 10.4797C32.3602 9.82346 31.7368 9.34221 31.0259 9.21096C30.6868 9.14533 9.26022 9.14533 8.93209 9.22189Z" fill="#0AC2F4"/>
<path d="M8.84374 16.8125C8.16562 16.9766 7.58593 17.4469 7.29062 18.0813C7.13749 18.4203 7.12656 18.475 7.12656 19.011C7.12656 19.5797 7.12656 19.6016 7.32343 19.9844C7.56406 20.4657 7.95781 20.8594 8.44999 21.0891L8.79999 21.2532L19.8797 21.2641C29.8984 21.275 30.9812 21.2641 31.2437 21.1875C31.6703 21.0672 31.9984 20.8703 32.2828 20.5641C33.5187 19.2516 32.8187 17.1188 31.0359 16.7797C30.5984 16.7032 9.19374 16.725 8.84374 16.8125Z" fill="#0AC2F4"/>
<path d="M8.87656 24.3922C8.19844 24.5344 7.59688 25.0157 7.30156 25.65C7.10469 26.0547 7.03906 26.711 7.14844 27.1157C7.3125 27.7828 7.80469 28.3625 8.45 28.6688L8.8 28.8328H20H31.211L31.561 28.6688C33.0047 27.9797 33.3547 26.1532 32.2391 25.0157C31.9328 24.6985 31.4735 24.4578 31.025 24.3703C30.6094 24.2828 9.24844 24.3047 8.87656 24.3922Z" fill="#0AC2F4"/>
</g>
<defs>
<clipPath id="clip0_789_44">
<rect width="26" height="20" fill="white" transform="translate(7 9)"/>
</clipPath>
</defs>
</svg>
