<svg width="12" height="20" viewBox="0 0 12 20" fill="none" xmlns="http://www.w3.org/2000/svg">
<path d="M10.2072 0L1.79235 0C0.987012 0 0.336914 0.653013 0.336914 1.45689V18.5446C0.336914 19.3477 0.987012 20 1.79235 20H10.2072C11.0111 20 11.6626 19.3477 11.6626 18.5446V1.45689C11.6626 0.653013 11.0111 0 10.2072 0ZM3.92339 0.884775H8.0776C8.18255 0.884775 8.26782 1.04147 8.26782 1.23533C8.26782 1.4292 8.18255 1.58662 8.0776 1.58662H3.92339C3.81771 1.58662 3.7339 1.4292 3.7339 1.23533C3.7339 1.04147 3.81771 0.884775 3.92339 0.884775ZM6.00049 18.5621C5.48814 18.5621 5.07126 18.1452 5.07126 17.6321C5.07126 17.119 5.48814 16.7036 6.00049 16.7036C6.51139 16.7036 6.92827 17.119 6.92827 17.6321C6.92827 18.1452 6.51139 18.5621 6.00049 18.5621ZM10.5723 15.3779H1.42794V2.45828H10.5723V15.3779Z" fill="#0E3C58"/>
</svg>
