<svg width="45" height="688" viewBox="0 0 45 688" fill="none" xmlns="http://www.w3.org/2000/svg">
<path d="M24 261.09L24 0.92865" stroke="#0E3C58" stroke-opacity="0.15" stroke-width="4"/>
<path d="M24 687.09L24 426.928" stroke="#0E3C58" stroke-opacity="0.15" stroke-width="4"/>
<path d="M21.25 330.09V338.09C21.25 340.59 20.8125 343.236 19.9375 346.028C19.1042 348.778 17.875 351.444 16.25 354.028C14.625 356.569 12.6667 358.798 10.375 360.715L3.75 356.153C5.70833 353.403 7.1875 350.59 8.1875 347.715C9.22917 344.798 9.75 341.653 9.75 338.278V330.09H21.25ZM40.4375 330.09V338.09C40.4375 340.59 40 343.236 39.125 346.028C38.2917 348.778 37.0625 351.444 35.4375 354.028C33.8125 356.569 31.8542 358.798 29.5625 360.715L22.9375 356.153C24.8958 353.403 26.375 350.59 27.375 347.715C28.4167 344.798 28.9375 341.653 28.9375 338.278V330.09H40.4375Z" fill="#0E3C58" fill-opacity="0.15"/>
</svg>
