<svg width="200" height="124" viewBox="0 0 200 124" fill="none" xmlns="http://www.w3.org/2000/svg">
<g clip-path="url(#clip0_315_394)">
<rect width="199.43" height="124" fill="white"/>
<path d="M189.459 10V114H9.97151V10H189.459ZM199.43 0H0V124H199.43V0Z" fill="#FE5218"/>
<path d="M58.4951 48.8633C58.4951 50.3867 58.126 51.7109 57.3877 52.8359C56.6494 53.9609 55.5713 54.8281 54.1533 55.4375C52.7471 56.0469 51.0361 56.3516 49.0205 56.3516C48.1299 56.3516 47.2568 56.293 46.4014 56.1758C45.5576 56.0586 44.7432 55.8887 43.958 55.666C43.1846 55.4316 42.4463 55.1445 41.7432 54.8047V49.7422C42.9619 50.2812 44.2275 50.7676 45.54 51.2012C46.8525 51.6348 48.1533 51.8516 49.4424 51.8516C50.333 51.8516 51.0479 51.7344 51.5869 51.5C52.1377 51.2656 52.5361 50.9434 52.7822 50.5332C53.0283 50.123 53.1514 49.6543 53.1514 49.127C53.1514 48.4824 52.9346 47.9316 52.501 47.4746C52.0674 47.0176 51.4697 46.5898 50.708 46.1914C49.958 45.793 49.1084 45.3652 48.1592 44.9082C47.5615 44.627 46.9111 44.2871 46.208 43.8887C45.5049 43.4785 44.8369 42.9805 44.2041 42.3945C43.5713 41.8086 43.0498 41.0996 42.6396 40.2676C42.2412 39.4238 42.042 38.416 42.042 37.2441C42.042 35.709 42.3936 34.3965 43.0967 33.3066C43.7998 32.2168 44.8018 31.3848 46.1025 30.8105C47.415 30.2246 48.9619 29.9316 50.7432 29.9316C52.0791 29.9316 53.3506 30.0898 54.5576 30.4062C55.7764 30.7109 57.0479 31.1562 58.3721 31.7422L56.6143 35.9785C55.4307 35.498 54.3701 35.1289 53.4326 34.8711C52.4951 34.6016 51.54 34.4668 50.5674 34.4668C49.8877 34.4668 49.3076 34.5781 48.8271 34.8008C48.3467 35.0117 47.9834 35.3164 47.7373 35.7148C47.4912 36.1016 47.3682 36.5527 47.3682 37.0684C47.3682 37.6777 47.5439 38.1934 47.8955 38.6152C48.2588 39.0254 48.7979 39.4238 49.5127 39.8105C50.2393 40.1973 51.1416 40.6484 52.2197 41.1641C53.5322 41.7852 54.6514 42.4355 55.5771 43.1152C56.5146 43.7832 57.2354 44.5742 57.7393 45.4883C58.2432 46.3906 58.4951 47.5156 58.4951 48.8633ZM78.8857 56L77.0225 49.8828H67.6533L65.79 56H59.9189L68.9893 30.1953H75.6514L84.7568 56H78.8857ZM75.7217 45.3125L73.8584 39.3359C73.7412 38.9375 73.583 38.4277 73.3838 37.8066C73.1963 37.1738 73.0029 36.5352 72.8037 35.8906C72.6162 35.2344 72.4639 34.666 72.3467 34.1855C72.2295 34.666 72.0654 35.2637 71.8545 35.9785C71.6553 36.6816 71.4619 37.3496 71.2744 37.9824C71.0869 38.6152 70.9521 39.0664 70.8701 39.3359L69.0244 45.3125H75.7217ZM88.0088 56V30.3008H93.458V51.5H103.882V56H88.0088ZM123.165 56H108.364V30.3008H123.165V34.7656H113.813V40.4082H122.515V44.873H113.813V51.5H123.165V56ZM143.714 48.8633C143.714 50.3867 143.345 51.7109 142.606 52.8359C141.868 53.9609 140.79 54.8281 139.372 55.4375C137.966 56.0469 136.255 56.3516 134.239 56.3516C133.349 56.3516 132.476 56.293 131.62 56.1758C130.776 56.0586 129.962 55.8887 129.177 55.666C128.403 55.4316 127.665 55.1445 126.962 54.8047V49.7422C128.181 50.2812 129.446 50.7676 130.759 51.2012C132.071 51.6348 133.372 51.8516 134.661 51.8516C135.552 51.8516 136.267 51.7344 136.806 51.5C137.356 51.2656 137.755 50.9434 138.001 50.5332C138.247 50.123 138.37 49.6543 138.37 49.127C138.37 48.4824 138.153 47.9316 137.72 47.4746C137.286 47.0176 136.688 46.5898 135.927 46.1914C135.177 45.793 134.327 45.3652 133.378 44.9082C132.78 44.627 132.13 44.2871 131.427 43.8887C130.724 43.4785 130.056 42.9805 129.423 42.3945C128.79 41.8086 128.269 41.0996 127.858 40.2676C127.46 39.4238 127.261 38.416 127.261 37.2441C127.261 35.709 127.612 34.3965 128.315 33.3066C129.019 32.2168 130.021 31.3848 131.321 30.8105C132.634 30.2246 134.181 29.9316 135.962 29.9316C137.298 29.9316 138.569 30.0898 139.776 30.4062C140.995 30.7109 142.267 31.1562 143.591 31.7422L141.833 35.9785C140.649 35.498 139.589 35.1289 138.651 34.8711C137.714 34.6016 136.759 34.4668 135.786 34.4668C135.106 34.4668 134.526 34.5781 134.046 34.8008C133.565 35.0117 133.202 35.3164 132.956 35.7148C132.71 36.1016 132.587 36.5527 132.587 37.0684C132.587 37.6777 132.763 38.1934 133.114 38.6152C133.478 39.0254 134.017 39.4238 134.731 39.8105C135.458 40.1973 136.36 40.6484 137.438 41.1641C138.751 41.7852 139.87 42.4355 140.796 43.1152C141.733 43.7832 142.454 44.5742 142.958 45.4883C143.462 46.3906 143.714 47.5156 143.714 48.8633ZM62.5908 96H57.1416V74.8359H50.1631V70.3008H69.5693V74.8359H62.5908V96ZM89.2568 96L87.3936 89.8828H78.0244L76.1611 96H70.29L79.3604 70.1953H86.0225L95.1279 96H89.2568ZM86.0928 85.3125L84.2295 79.3359C84.1123 78.9375 83.9541 78.4277 83.7549 77.8066C83.5674 77.1738 83.374 76.5352 83.1748 75.8906C82.9873 75.2344 82.835 74.666 82.7178 74.1855C82.6006 74.666 82.4365 75.2637 82.2256 75.9785C82.0264 76.6816 81.833 77.3496 81.6455 77.9824C81.458 78.6152 81.3232 79.0664 81.2412 79.3359L79.3955 85.3125H86.0928ZM98.3799 96V70.3008H103.829V91.5H114.253V96H98.3799ZM139.407 96H133.22L126.487 85.1719L124.185 86.8242V96H118.735V70.3008H124.185V82.0605C124.548 81.5566 124.905 81.0527 125.257 80.5488C125.608 80.0449 125.966 79.541 126.329 79.0371L133.29 70.3008H139.337L130.372 81.6738L139.407 96ZM157.812 88.8633C157.812 90.3867 157.442 91.7109 156.704 92.8359C155.966 93.9609 154.888 94.8281 153.47 95.4375C152.063 96.0469 150.353 96.3516 148.337 96.3516C147.446 96.3516 146.573 96.293 145.718 96.1758C144.874 96.0586 144.06 95.8887 143.274 95.666C142.501 95.4316 141.763 95.1445 141.06 94.8047V89.7422C142.278 90.2812 143.544 90.7676 144.856 91.2012C146.169 91.6348 147.47 91.8516 148.759 91.8516C149.649 91.8516 150.364 91.7344 150.903 91.5C151.454 91.2656 151.853 90.9434 152.099 90.5332C152.345 90.123 152.468 89.6543 152.468 89.127C152.468 88.4824 152.251 87.9316 151.817 87.4746C151.384 87.0176 150.786 86.5898 150.024 86.1914C149.274 85.793 148.425 85.3652 147.476 84.9082C146.878 84.627 146.228 84.2871 145.524 83.8887C144.821 83.4785 144.153 82.9805 143.521 82.3945C142.888 81.8086 142.366 81.0996 141.956 80.2676C141.558 79.4238 141.358 78.416 141.358 77.2441C141.358 75.709 141.71 74.3965 142.413 73.3066C143.116 72.2168 144.118 71.3848 145.419 70.8105C146.731 70.2246 148.278 69.9316 150.06 69.9316C151.396 69.9316 152.667 70.0898 153.874 70.4062C155.093 70.7109 156.364 71.1562 157.688 71.7422L155.931 75.9785C154.747 75.498 153.687 75.1289 152.749 74.8711C151.812 74.6016 150.856 74.4668 149.884 74.4668C149.204 74.4668 148.624 74.5781 148.144 74.8008C147.663 75.0117 147.3 75.3164 147.054 75.7148C146.808 76.1016 146.685 76.5527 146.685 77.0684C146.685 77.6777 146.86 78.1934 147.212 78.6152C147.575 79.0254 148.114 79.4238 148.829 79.8105C149.556 80.1973 150.458 80.6484 151.536 81.1641C152.849 81.7852 153.968 82.4355 154.894 83.1152C155.831 83.7832 156.552 84.5742 157.056 85.4883C157.56 86.3906 157.812 87.5156 157.812 88.8633Z" fill="#0E3C58"/>
</g>
<defs>
<clipPath id="clip0_315_394">
<rect width="199.43" height="124" fill="white"/>
</clipPath>
</defs>
</svg>
