<svg width="26" height="27" viewBox="0 0 26 27" fill="none" xmlns="http://www.w3.org/2000/svg">
<path d="M12.3281 0.616146C10.2372 0.751663 8.04185 1.50282 6.30722 2.67602C4.4758 3.91504 3.02382 5.58772 2.08294 7.53917C1.56797 8.60783 1.2466 9.61453 1.0259 10.8536C0.859404 11.7828 0.824557 13.1845 0.940715 14.2609C1.09559 15.709 1.62605 17.4436 2.34236 18.8607L2.54757 19.2595L2.07132 20.6805C1.80803 21.4627 1.33178 22.8875 1.01041 23.8478C0.685167 24.8119 0.421875 25.625 0.421875 25.6637C0.421875 25.6986 0.47221 25.7489 0.534161 25.7721C0.634832 25.8109 0.646448 25.8263 0.627088 25.9464C0.603856 26.0703 0.607728 26.078 0.696783 26.0509C0.855532 26.0006 4.32092 24.8971 5.78451 24.4247C6.55116 24.1808 7.20939 23.9794 7.24811 23.9794C7.28295 23.9794 7.44945 24.0453 7.61594 24.1304C9.03307 24.8429 10.5431 25.2688 12.15 25.4159C12.785 25.4701 14.0782 25.443 14.7016 25.354C18.3954 24.8429 21.5394 22.8024 23.4754 19.67C24.1065 18.6478 24.7067 17.2229 25.0281 15.9839C25.3339 14.7952 25.4811 13.32 25.3998 12.1816C25.1907 9.15764 24.0213 6.47826 21.9886 4.37193C20.0178 2.33142 17.5087 1.06916 14.6513 0.685841C14.2331 0.631634 12.785 0.585171 12.3281 0.616146ZM13.842 3.26455C15.2243 3.37684 16.3588 3.68272 17.5552 4.26739C19.1776 5.065 20.5366 6.25756 21.5433 7.77536C22.3177 8.94081 22.7939 10.1953 22.9798 11.566C23.0689 12.2165 23.0689 13.5329 22.9798 14.1989C22.3487 18.8801 18.4845 22.4887 13.7956 22.783C12.1422 22.8837 10.6051 22.6126 9.10276 21.9544C8.68847 21.7724 8.00313 21.4007 7.79018 21.2458C7.72435 21.1955 7.63917 21.1529 7.60045 21.1529C7.5656 21.1529 6.74088 21.4046 5.7729 21.7143C4.80491 22.0241 4.00729 22.2758 4.00342 22.268C3.99568 22.2603 4.24348 21.5053 4.54936 20.5915C4.85525 19.6738 5.10692 18.8801 5.10692 18.8181C5.10692 18.7562 5.03723 18.6129 4.93656 18.4697C3.31809 16.1504 2.7915 12.9483 3.57751 10.234C3.75174 9.64551 3.895 9.28542 4.17766 8.72399C4.95204 7.21006 6.13299 5.88973 7.58496 4.92174C9.41639 3.69821 11.7047 3.09419 13.842 3.26455Z" fill="#DEDEDE"/>
<path d="M8.71952 6.84225C8.63046 6.86936 8.50269 6.93131 8.42912 6.9739C8.23166 7.0978 7.65861 7.70957 7.4805 7.98835C6.91132 8.87502 6.78355 10.056 7.12428 11.2098C7.3837 12.081 7.7012 12.747 8.28199 13.6453C9.01766 14.7759 9.49391 15.3876 10.2567 16.1736C11.4028 17.3546 12.3669 18.0167 13.846 18.6323C14.9379 19.0892 15.7432 19.3486 16.1962 19.3951C16.5099 19.4261 17.1952 19.3176 17.5979 19.1705C18.1554 18.9692 18.7943 18.52 19.0421 18.1561C19.2899 17.7844 19.5455 16.9441 19.5764 16.3866L19.5997 16.0187L19.4796 15.8794C19.3945 15.7864 19.046 15.5773 18.3413 15.1979C16.6686 14.2996 16.4557 14.2144 16.1924 14.3538C16.1265 14.3848 15.8787 14.6365 15.6464 14.9075C14.9572 15.709 14.814 15.8484 14.6978 15.8484C14.5507 15.8484 13.5865 15.3566 13.1374 15.0546C12.6147 14.6984 12.274 14.4119 11.8442 13.9666C11.3331 13.4362 10.7794 12.6773 10.4696 12.0849L10.3999 11.9455L10.6787 11.6396C11.0466 11.2485 11.1976 11.0123 11.3447 10.6019C11.4957 10.1837 11.488 10.056 11.2673 9.47904C11.0698 8.96408 10.911 8.53816 10.6361 7.79862C10.4116 7.19073 10.2451 6.94292 10.0127 6.86936C9.79205 6.80353 8.9015 6.78417 8.71952 6.84225Z" fill="#DEDEDE"/>
</svg>
